<svg id="visual" viewBox="0 0 900 600" width="900" height="600" xmlns="http://www.w3.org/2000/svg" xmlns:xlink="http://www.w3.org/1999/xlink" version="1.1"><path d="M0 523L30 507.3C60 491.7 120 460.3 180 460.2C240 460 300 491 360 506.5C420 522 480 522 540 509.8C600 497.7 660 473.3 720 469.5C780 465.7 840 482.3 870 490.7L900 499L900 601L870 601C840 601 780 601 720 601C660 601 600 601 540 601C480 601 420 601 360 601C300 601 240 601 180 601C120 601 60 601 30 601L0 601Z" fill="#219ebc" stroke-linecap="round" stroke-linejoin="miter"></path></svg>